<svg width="512" height="512" viewBox="0 0 512 512" fill="none" xmlns="http://www.w3.org/2000/svg">
  <defs>
    <filter id="grainyTexture" x="0%" y="0%" width="100%" height="100%">
      <feTurbulence type="fractalNoise" baseFrequency="0.85" numOctaves="3" result="noise"/>
      <feColorMatrix type="matrix" values="0 0 0 0 0  0 0 0 0 0  0 0 0 0 0  0 0 0 0.04 0" in="noise" result="coloredNoise"/>
      <feComposite operator="in" in="coloredNoise" in2="SourceGraphic" result="compositeNoise"/>
      <feBlend mode="overlay" in="compositeNoise" in2="SourceGraphic"/>
    </filter>

    <linearGradient id="hyperBodyGrad" x1="100" y1="100" x2="400" y2="400" gradientUnits="userSpaceOnUse">
      <stop offset="0%" stop-color="#818cf8"/>   <stop offset="45%" stop-color="#6366f1"/>  <stop offset="100%" stop-color="#312e81"/> </linearGradient>

    <linearGradient id="opalLeafGrad" x1="256" y1="350" x2="340" y2="180" gradientUnits="userSpaceOnUse">
      <stop offset="0%" stop-color="#FFFFFF"/> 
      <stop offset="70%" stop-color="#F5F3FF"/> 
      <stop offset="100%" stop-color="#DDD6FE"/> 
    </linearGradient>

    <mask id="hyper-mask">
      <rect width="512" height="512" fill="white"/>
      <g transform="rotate(-45 256 256)">
        <rect x="150" y="110" width="80" height="292" rx="40" fill="black"/>
        <rect x="282" y="110" width="80" height="292" rx="40" fill="black"/>
      </g>
    </mask>

    <filter id="hyperShadow" x="-50%" y="-50%" width="200%" height="200%">
      <feGaussianBlur in="SourceAlpha" stdDeviation="20" result="blur1"/>
      <feOffset dx="0" dy="15" in="blur1" result="offsetBlur"/>
      <feFlood flood-color="#1e1b4b" flood-opacity="0.5"/>
      <feComposite in2="offsetBlur" operator="in"/>
      <feMerge>
        <feMergeNode/>
        <feMergeNode in="SourceGraphic"/>
      </feMerge>
    </filter>

    <filter id="innerBevel">
       <feGaussianBlur in="SourceAlpha" stdDeviation="2" result="blur"/>
       <feOffset dx="1" dy="2" result="offsetBlur"/>
       <feComposite in="offsetBlur" in2="SourceAlpha" operator="out" result="inverse"/>
       <feFlood flood-color="black" flood-opacity="0.7"/>
       <feComposite operator="in" in2="inverse"/>
    </filter>
  </defs>

  <g transform="translate(0, 10)" opacity="0.4">
     <rect x="106" y="106" width="300" height="300" rx="80" transform="rotate(-45 256 256)" fill="black" filter="url(#hyperShadow)"/>
  </g>

  <g filter="url(#hyperShadow)">
    
    <g transform="rotate(-45 256 256)">
        <rect x="148" y="112" width="84" height="288" rx="42" fill="#1e1b4b"/>
        <rect x="280" y="112" width="84" height="288" rx="42" fill="#1e1b4b"/>
        
        <path d="M 150 360 A 40 40 0 0 0 230 360" stroke="white" stroke-width="3" stroke-opacity="0.3" fill="none" stroke-linecap="round"/>
        <path d="M 282 360 A 40 40 0 0 0 362 360" stroke="white" stroke-width="3" stroke-opacity="0.3" fill="none" stroke-linecap="round"/>
    </g>

    <g mask="url(#hyper-mask)">
        <rect x="106" y="106" width="300" height="300" rx="80" transform="rotate(-45 256 256)" fill="url(#hyperBodyGrad)"/>
        
        <rect x="106" y="106" width="300" height="300" rx="80" transform="rotate(-45 256 256)" filter="url(#grainyTexture)" opacity="0.7"/>
        
        <rect x="106" y="106" width="300" height="300" rx="80" transform="rotate(-45 256 256)" fill="white" fill-opacity="0.15"/>
        
        <path d="M 160 120 L 350 120 A 60 60 0 0 1 400 170" transform="rotate(-45 256 256)" stroke="white" stroke-width="2" stroke-opacity="0.6" fill="none"/>
    </g>
  </g>

  <g filter="url(#hyperShadow)">
      <path d="M 256 350 
               Q 240 300, 260 250 
               C 280 200, 330 180, 340 180 
               C 340 180, 320 220, 310 260 
               Q 300 300, 256 350 Z" 
            fill="url(#opalLeafGrad)"/>

      <path d="M 256 350 Q 260 340, 270 330" stroke="#4c1d95" stroke-width="8" stroke-opacity="0.2" filter="url(#innerBevel)"/>

      <ellipse cx="310" cy="210" rx="15" ry="25" transform="rotate(30 310 210)" fill="white" opacity="0.6"/>
      
      <path d="M 256 350 Q 265 300, 340 180" stroke="#8b5cf6" stroke-width="1.5" stroke-linecap="round" stroke-opacity="0.4" fill="none"/>
  </g>

</svg>